<svg xmlns="http://www.w3.org/2000/svg" xmlns:xlink="http://www.w3.org/1999/xlink" version="1.1" x="0px" y="0px" viewBox="0 0 100 125" enable-background="new 0 0 100 100" xml:space="preserve"><path fill="#000000" d="M64.985,21.421c-1.52,0-2.91,0.55-3.99,1.47c-1.06-1.88-3.09-3.15-5.41-3.15c-1.48,0-2.85,0.52-3.91,1.39  c-1.07-1.78-3.21-3.09-5.5-3.09c-1.589,0-3.039,0.6-4.139,1.579c-1.072-1.714-2.971-2.86-5.137-2.86h-0.065  c-3.342,0-6.061,2.719-6.061,6.061v10.813c-1.209,1.849-1.958,4.208-1.958,7.057v4.23c0,6.128,3.378,11.527,8.586,14.258v7.062  h-1.216c-1.84,0-3.34,1.5-3.34,3.35v10.3c0,1.84,1.5,3.35,3.34,3.35h29.59c1.84,0,3.33-1.51,3.33-3.35v-10.3  c0-1.85-1.49-3.35-3.33-3.35h-1.219V58.71c4-2.73,6.629-7.31,6.629-12.489v-18.63C71.185,24.191,68.405,21.421,64.985,21.421z   M64.985,24.421c1.76,0,3.2,1.42,3.2,3.17v6.71c0,1.74-1.44,3.16-3.2,3.16s-3.19-1.42-3.19-3.16v-6.71  C61.795,25.841,63.225,24.421,64.985,24.421z M55.585,22.741c1.77,0,3.21,1.42,3.21,3.17v8.51c-0.06,1.68-1.48,3.04-3.21,3.04  c-1.12,0-2.1-0.57-2.67-1.43c0.72-1.28,1.15-2.74,1.19-4.3c0.01-0.08,0.01-1.41,0.01-1.41c0-0.83-0.67-1.5-1.5-1.5h-0.23v-2.91  C52.385,24.161,53.815,22.741,55.585,22.741z M46.175,21.04c1.86,0,3.21,1.51,3.21,2.53v5.25h-6.42v-4.61  C42.965,22.461,44.405,21.04,46.175,21.04z M36.834,19.759h0.065c1.688,0,3.061,1.373,3.061,3.061l0.005,6h-0.48  c-1.96,0-3.97,0.6-5.71,1.77c-0.001,0-0.001,0.001-0.002,0.001V22.82C33.773,21.133,35.146,19.759,36.834,19.759z M66.105,69.591  v10.3c0,0.19-0.15,0.35-0.33,0.35h-29.59c-0.19,0-0.34-0.16-0.34-0.35v-10.3c0-0.2,0.15-0.35,0.34-0.35h29.59  C65.955,69.241,66.105,69.391,66.105,69.591z M40.401,66.241v-5.861c0.001,0,0.003,0.001,0.004,0.001c0.23,0.07,0.47,0.13,0.7,0.19  c0.01,0,0.01,0,0.02,0c1.55,0.54,3.2,0.82,4.93,0.82h9.84c2,0,3.91-0.38,5.66-1.08c0,0,0.001,0,0.001,0v5.931H40.401z   M68.185,46.221c0,6.71-5.51,12.17-12.29,12.17h-9.84c-1.32,0-2.59-0.22-3.79-0.61c-0.08-0.03-0.281-0.088-0.42-0.12  c-5.91-1.42-10.03-6.64-10.03-12.74v-4.23c0-4.3,2.69-8.87,7.67-8.87h11.62c-0.07,1.44-0.65,2.77-1.57,3.81c0,0,0,0,0,0.01  c-0.54,0.61-1.19,1.11-1.93,1.47c-0.09,0.05-0.18,0.09-0.28,0.13c-0.76,0.34-1.6,0.53-2.48,0.53h-3.16c-0.2,0-0.39,0.04-0.56,0.11  c-0.55,0.22-0.94,0.76-0.94,1.39v3.62c0,0.82,0.67,1.5,1.5,1.5c3.66,0,6.64,2.98,6.64,6.64c0,0.82,0.67,1.5,1.5,1.5  c0.83,0,1.5-0.68,1.5-1.5c0-4.81-3.53-8.8-8.14-9.53v-0.73h1.66c1.35,0,2.63-0.3,3.79-0.83c0.19-0.08,0.37-0.17,0.55-0.27  c0.65-0.35,1.25-0.77,1.8-1.26c1.12,1.26,2.77,2.05,4.6,2.05c1.89,0,3.57-0.83,4.71-2.15c1.14,1.32,2.82,2.15,4.69,2.15  c1.17,0,2.27-0.32,3.2-0.89V46.221z"/></svg>